<?xml version="1.0" encoding="UTF-8" standalone="no"?>
<!-- Created with Inkscape (http://www.inkscape.org/) -->

<svg
   width="500"
   height="500"
   viewBox="0 0 500 500"
   version="1.1"
   id="svg5"
   xml:space="preserve"
   inkscape:version="1.2.2 (732a01da63, 2022-12-09)"
   sodipodi:docname="stickyheart.svg"
   inkscape:export-filename="stickyheart-128.png"
   inkscape:export-xdpi="24.576"
   inkscape:export-ydpi="24.576"
   xmlns:inkscape="http://www.inkscape.org/namespaces/inkscape"
   xmlns:sodipodi="http://sodipodi.sourceforge.net/DTD/sodipodi-0.dtd"
   xmlns="http://www.w3.org/2000/svg"
   xmlns:svg="http://www.w3.org/2000/svg"><sodipodi:namedview
     id="namedview7"
     pagecolor="#505050"
     bordercolor="#ffffff"
     borderopacity="1"
     inkscape:showpageshadow="0"
     inkscape:pageopacity="0"
     inkscape:pagecheckerboard="1"
     inkscape:deskcolor="#505050"
     inkscape:document-units="px"
     showgrid="false"
     inkscape:zoom="1.6088805"
     inkscape:cx="218.16412"
     inkscape:cy="210.70552"
     inkscape:window-width="1857"
     inkscape:window-height="1057"
     inkscape:window-x="-8"
     inkscape:window-y="-8"
     inkscape:window-maximized="1"
     inkscape:current-layer="layer1" /><defs
     id="defs2"><inkscape:path-effect
       effect="spiro"
       id="path-effect1715"
       is_visible="true"
       lpeversion="1" /></defs><g
     inkscape:label="Layer 1"
     inkscape:groupmode="layer"
     id="layer1"><path
       style="display:inline;fill:#ffeeaa;fill-opacity:1;stroke-width:0;stroke-linecap:round;stroke-linejoin:round;stroke-miterlimit:6.6;paint-order:fill markers stroke"
       d="M 44.892394,86.349867 413.35489,44.972146 455.10761,413.05538 85.925616,455.02785 Z"
       id="path302" /><g
       id="g2822"
       style="fill:#ff5555"><path
         style="fill:#ff5555;fill-opacity:1;stroke:none;stroke-width:16.5;stroke-linecap:round;stroke-linejoin:round;stroke-miterlimit:6.6;stroke-dasharray:none;stroke-opacity:1;paint-order:fill markers stroke"
         id="path2670"
         d="m 259.83387,231.41241 c -0.42308,-0.55362 -0.85505,-1.10484 -1.28598,-1.65386 -1.04172,-1.28755 -2.00059,-2.63662 -2.93091,-4.00579 -1.52227,-2.36025 -3.03061,-4.72842 -4.60799,-7.05248 -1.75375,-2.59778 -3.68742,-5.06348 -5.68637,-7.475 -2.09767,-2.50952 -4.36709,-4.86727 -6.67732,-7.17993 -2.27389,-2.25502 -4.64239,-4.41127 -7.03579,-6.53796 -2.42404,-2.17739 -4.96848,-4.21068 -7.58389,-6.15179 -2.66425,-1.98658 -5.51361,-3.68977 -8.48361,-5.1723 -2.06873,-0.97726 -4.20493,-1.81757 -6.42513,-2.38219 -1.52571,-0.38801 -2.01142,-0.43493 -3.56363,-0.6927 -2.52172,-0.34154 -5.06955,-0.46911 -7.60985,-0.29186 -1.80516,0.12596 -2.38872,0.25045 -4.18212,0.52006 -3.94298,0.64352 -7.74077,1.86793 -11.44236,3.341 -3.51522,1.41627 -6.779,3.33837 -9.92737,5.42896 -3.23457,2.14331 -6.00992,4.76182 -8.60349,7.62832 -3.02757,3.55822 -5.40204,7.58413 -7.5457,11.71636 -1.40675,2.83544 -2.65571,5.75091 -3.5799,8.78115 -0.58952,1.93287 -0.75332,2.75639 -1.21858,4.71323 -0.9974,4.62145 -1.42248,9.33401 -1.53003,14.05263 -0.0331,4.26104 0.2975,8.51234 0.82311,12.73749 0.47806,3.80103 1.40472,7.51844 2.58871,11.15532 1.1637,3.47548 2.82328,6.73649 4.7284,9.85613 2.13515,3.35533 4.76971,6.34172 7.5193,9.19911 2.81894,2.88835 5.85999,5.5443 8.96054,8.12313 3.05395,2.53538 6.2629,4.87245 9.5021,7.16294 3.30279,2.33538 6.68267,4.55788 10.07854,6.75463 3.06477,1.9738 6.14208,3.92802 9.26707,5.80523 2.77421,1.68001 5.64395,3.18827 8.56775,4.58834 2.90818,1.36159 5.86692,2.61091 8.82112,3.86824 2.83987,1.20365 5.66134,2.44972 8.47158,3.72081 2.57001,1.16429 5.14162,2.32501 7.70874,3.49565 2.5692,1.18399 5.13924,2.36602 7.71787,3.52936 2.82304,1.2654 5.64147,2.54107 8.46547,3.80434 3.02987,1.34619 6.06735,2.67515 9.09921,4.01682 2.82195,1.25484 5.64685,2.50294 8.47473,3.74434 2.36335,1.03863 4.73267,2.06361 7.10856,3.07321 1.81273,0.77043 3.64428,1.49498 5.48817,2.18713 1.37243,0.49333 2.74976,1.04597 4.20939,1.22256 0.42562,0.0515 0.85553,0.0572 1.28329,0.0857 1.99356,-0.0341 3.87518,-0.62615 5.54452,-1.71711 1.01296,-0.66199 1.48378,-1.15433 2.35984,-1.95573 2.12328,-2.07774 3.86709,-4.48794 5.49887,-6.95804 1.80405,-2.83121 3.43515,-5.76695 5.03431,-8.7171 1.4196,-2.6591 2.78987,-5.3442 4.14681,-8.03569 1.30646,-2.5871 2.56163,-5.19948 3.79973,-7.81982 1.15768,-2.46613 2.30503,-4.93709 3.46186,-7.40362 1.07324,-2.32204 2.22219,-4.60715 3.40522,-6.87481 1.39166,-2.62082 2.87878,-5.18917 4.30341,-7.79206 1.48998,-2.71047 2.86115,-5.48324 4.19435,-8.27337 1.23227,-2.61221 2.37737,-5.26425 3.5228,-7.91531 1.18426,-2.75903 2.42765,-5.49188 3.65979,-8.22967 1.35021,-2.97334 2.60799,-5.98675 3.81445,-9.02084 1.42771,-3.52122 2.61074,-7.12796 3.65711,-10.77818 1.2272,-4.31089 2.09573,-8.70775 2.84602,-13.12274 0.69563,-4.35043 1.13967,-8.73479 1.5055,-13.12348 0.36188,-4.2109 0.54347,-8.4314 0.53613,-12.65706 -0.006,-4.64605 -0.63976,-9.24583 -1.59392,-13.78243 -0.78291,-3.24506 -1.91696,-6.39935 -3.38358,-9.39829 -0.97949,-2.00287 -1.40455,-2.64531 -2.53242,-4.5708 -2.80159,-4.47029 -6.02567,-8.65421 -9.32386,-12.76459 -3.01376,-3.84452 -6.49289,-7.25683 -10.20073,-10.42127 -2.97075,-2.3853 -6.09278,-4.61251 -9.45358,-6.42004 -0.67868,-0.36501 -1.37557,-0.69512 -2.06335,-1.04268 -2.66105,-1.23792 -5.40573,-2.3163 -8.24808,-3.06161 -1.82956,-0.47974 -2.22366,-0.50648 -4.0747,-0.82383 -3.41932,-0.50958 -6.88804,-0.29704 -10.25775,0.44111 -0.69198,0.15158 -1.3739,0.34588 -2.06085,0.51881 -3.93601,1.07784 -7.63666,2.78863 -11.18009,4.78589 -3.698,2.12161 -6.85435,4.97365 -9.8205,8.00223 -3.24219,3.34181 -5.85044,7.18986 -8.25328,11.15705 -2.37082,3.96207 -4.25334,8.17635 -5.90492,12.47935 -1.45628,3.84297 -2.54151,7.80718 -3.49799,11.79918 -0.83054,3.5169 -1.4438,7.07783 -1.93512,10.65624 -0.45618,3.32704 -0.65798,6.67871 -0.74809,10.0332 -0.0569,2.91245 0.0832,5.82363 0.2884,8.72786 0.15448,2.1692 0.43763,4.32568 0.77394,6.47325 0.22792,1.40145 0.49647,2.79577 0.7661,4.18965 0.11342,0.71956 0.31571,1.42652 0.40827,2.14935 1.06764,6.99001 10.95299,5.48014 9.88536,-1.50986 v 0 c -0.13579,-0.85045 -0.31314,-1.69312 -0.47566,-2.53879 -0.24729,-1.27825 -0.49441,-2.55675 -0.70513,-3.84166 -0.29424,-1.86786 -0.5425,-3.7435 -0.678,-5.63036 -0.18436,-2.58073 -0.31199,-5.16771 -0.26675,-7.75592 0.0771,-2.98948 0.25436,-5.97645 0.65933,-8.94163 0.44294,-3.2527 1.00146,-6.48872 1.75315,-9.68568 0.85146,-3.56868 1.81432,-7.11371 3.11144,-10.55014 1.43165,-3.75224 3.0658,-7.4268 5.12496,-10.8831 1.99809,-3.31718 4.15198,-6.54608 6.85167,-9.34461 2.29836,-2.36684 4.72813,-4.61887 7.59722,-6.28781 2.76436,-1.58155 5.66044,-2.92439 8.73254,-3.79784 2.67695,-0.70643 5.41169,-1.21115 8.18434,-0.7824 3.33879,0.53692 6.43022,1.49514 9.48722,2.96092 3.39483,1.6858 6.5902,3.72753 9.51996,6.14033 3.23718,2.74389 6.26022,5.7176 8.88272,9.06516 2.99906,3.73359 5.93354,7.53094 8.50398,11.57701 0.90921,1.5354 1.27398,2.08604 2.06253,3.67094 1.15849,2.32845 2.05946,4.77916 2.68936,7.30229 0.82859,3.85825 1.36262,7.77489 1.37589,11.72897 0.0119,3.94115 -0.16687,7.87702 -0.50173,11.80441 -0.34104,4.10649 -0.75372,8.20904 -1.39913,12.28046 -0.68578,4.05186 -1.47754,8.08762 -2.60108,12.04431 -0.95123,3.33202 -2.03216,6.6224 -3.33578,9.83539 -1.15058,2.89638 -2.35187,5.7723 -3.64059,8.61031 -1.25272,2.78358 -2.51649,5.56231 -3.72057,8.36747 -1.09539,2.5354 -2.18954,5.07214 -3.36631,7.57117 -1.25347,2.6249 -2.54206,5.23381 -3.94359,7.78353 -1.45596,2.66162 -2.97932,5.28605 -4.39753,7.96823 -1.24729,2.39261 -2.45956,4.80318 -3.5922,7.25256 -1.1528,2.458 -2.2963,4.92034 -3.44981,7.37801 -1.20155,2.54334 -2.41953,5.07902 -3.68756,7.59005 -1.31229,2.60323 -2.63742,5.2003 -4.00931,7.77273 -1.46325,2.70084 -2.95342,5.3896 -4.59693,7.98614 -1.18797,1.81596 -2.45027,3.5938 -3.97336,5.14853 -0.0793,0.0777 -0.78586,0.67437 -0.83687,0.89086 -0.01,0.0409 0.0941,0.0883 0.10142,0.0928 0.0224,0.12032 -0.23151,0.032 -0.51858,-0.05 -0.61158,-0.17485 -1.20251,-0.41441 -1.80124,-0.62682 -1.71034,-0.64131 -3.40883,-1.31374 -5.09015,-2.02798 -2.33955,-0.99403 -4.67249,-2.00352 -6.99966,-3.02618 -2.81886,-1.23743 -5.63473,-2.48157 -8.44766,-3.7324 -3.01965,-1.33623 -6.04481,-2.65998 -9.06256,-4.00052 -2.81439,-1.25892 -5.62316,-2.53034 -8.4366,-3.79136 -2.56636,-1.15771 -5.12394,-2.33452 -7.68098,-3.51263 -2.57653,-1.17493 -5.15755,-2.33994 -7.73698,-3.50848 -2.87821,-1.30163 -5.76782,-2.57788 -8.67629,-3.81065 -2.82025,-1.20031 -5.64526,-2.39195 -8.42311,-3.68848 -2.64065,-1.26084 -5.23002,-2.62392 -7.73434,-4.14017 -3.0303,-1.81845 -6.01147,-3.7163 -8.98338,-5.62839 -3.28068,-2.12193 -6.54646,-4.26792 -9.73725,-6.52376 -3.02713,-2.13936 -6.02797,-4.31969 -8.88243,-6.68752 -2.82068,-2.34297 -5.58927,-4.75395 -8.15629,-7.37631 -2.25588,-2.33068 -4.42499,-4.76242 -6.19554,-7.49077 -1.514,-2.44435 -2.81666,-5.01031 -3.74682,-7.73813 -1.00108,-3.02211 -1.76047,-6.12026 -2.16811,-9.28172 -0.47306,-3.74299 -0.76353,-7.51032 -0.74767,-11.28564 0.0741,-4.01561 0.44514,-8.0254 1.26446,-11.96252 0.3873,-1.6531 0.50829,-2.27996 0.99096,-3.90337 0.74981,-2.52191 1.79971,-4.93804 2.95817,-7.29667 1.74263,-3.38368 3.66319,-6.68621 6.10117,-9.62558 2.00036,-2.24719 4.19677,-4.31439 6.70798,-5.98866 2.56806,-1.71617 5.22742,-3.30118 8.09733,-4.46703 2.99062,-1.20286 6.05892,-2.20515 9.24655,-2.74193 2.88074,-0.45409 5.77412,-0.69595 8.67683,-0.24099 2.48146,0.38698 4.89116,1.02066 7.14503,2.16277 2.44799,1.2026 4.77733,2.62212 6.97054,4.24656 2.3809,1.76233 4.69266,3.61423 6.89738,5.59424 2.24613,1.99489 4.46943,4.01695 6.60444,6.13126 2.09329,2.093 4.15134,4.22543 6.05381,6.49548 1.79669,2.16368 3.5351,4.3757 5.10997,6.70814 1.58044,2.32578 3.08157,4.70233 4.61322,7.06019 1.05967,1.55531 2.15002,3.08928 3.33237,4.55467 0.50737,0.64627 1.00684,1.29875 1.51977,1.9406 4.56889,5.39679 12.20109,-1.06459 7.63221,-6.46138 z" /><path
         style="fill:#ff5555;fill-opacity:1;stroke:none;stroke-width:16.5;stroke-linecap:round;stroke-linejoin:round;stroke-miterlimit:6.6;stroke-dasharray:none;stroke-opacity:1;paint-order:fill markers stroke"
         id="path2791"
         d="m 169.36957,218.18746 c -0.0186,0.20463 -0.255,0.56389 -0.0557,0.61387 0.21119,0.053 0.24452,-0.36066 0.37735,-0.53319 0.34039,-0.44212 0.67756,-0.88753 1.04185,-1.31017 2.18862,-2.53914 4.60919,-4.86818 6.9892,-7.22372 5.03522,-4.95795 10.34303,-9.62474 15.71071,-14.21643 0.54262,-0.4514 1.07007,-0.92167 1.62786,-1.35419 0.32854,-0.25475 0.66785,-0.49868 1.02846,-0.70556 0.059,-0.0338 0.13601,-9.9e-4 0.20401,-0.001 -0.59762,0.16294 -1.20069,0.67058 -1.79286,0.48883 -3.97597,-1.22029 -3.58566,-1.39722 -4.49821,-4.06499 -0.13788,0.24097 -0.28406,0.47736 -0.41364,0.72289 -0.3518,0.66658 -0.66398,1.35408 -1.03018,2.01286 -2.5567,4.59942 -5.55654,8.95585 -8.45701,13.34023 -4.62283,6.89543 -9.11802,13.87458 -13.61001,20.8555 -1.87355,2.91507 -3.73171,5.84041 -5.53299,8.80085 -0.62595,1.02876 -1.98563,3.26235 -2.54906,4.40334 -0.32069,0.64943 -0.57279,1.33053 -0.85918,1.9958 -0.4465,2.06084 -1.48321,5.00417 1.12816,6.6333 1.9162,1.19545 4.50537,1.08283 6.73614,0.72984 1.18038,-0.18678 1.92115,-1.42926 2.80024,-2.23882 1.41337,-1.30159 4.9922,-5.47608 5.96233,-6.58081 6.58613,-7.49981 12.94999,-15.20079 19.73382,-22.52579 1.12263,-1.2122 2.27465,-2.39685 3.41197,-3.59528 4.57822,-4.76883 9.52092,-9.16153 14.60756,-13.3759 0.43338,-0.35275 0.8593,-0.71488 1.30016,-1.05824 2.16566,-1.68676 -0.9102,1.14485 -1.84743,0.41425 -2.18758,-1.7053 -2.79432,-4.89758 -4.84514,-6.76512 -0.42972,-0.39132 -0.71973,0.9128 -1.08569,1.36431 -0.65998,0.81427 -1.32805,1.62196 -1.99207,2.43294 -7.09095,8.53046 -14.4349,16.84482 -21.56233,25.34438 -4.5854,5.54307 -8.9939,11.23687 -12.91113,17.27561 -1.94101,2.99222 -2.75549,4.43559 -4.53034,7.43715 -1.43743,2.4848 -2.82397,4.99858 -4.18007,7.52854 -0.3346,0.62424 -1.24456,2.29957 -1.53439,3.0168 -0.19889,0.49222 -0.33368,1.00797 -0.50053,1.51195 2.29483,1.97212 4.05215,4.85178 6.88449,5.91635 1.1629,0.43709 2.05853,-1.39892 3.01044,-2.1972 0.78953,-0.66212 1.4698,-1.44457 2.19957,-2.17202 0.94622,-0.94321 1.89584,-1.88316 2.82835,-2.83992 4.04091,-4.146 3.80993,-3.98435 7.98047,-8.5965 8.54085,-9.81991 16.81349,-19.86789 25.34861,-29.69279 2.40123,-2.68133 4.76121,-5.41358 7.35589,-7.91387 1.39304,-1.34235 2.89205,-2.54435 4.4213,-3.72388 0.29617,-0.20257 0.58058,-0.4235 0.88849,-0.60772 0.0227,-0.0136 0.0482,0.0219 0.0724,0.0329 -1.98612,-0.40521 -4.33638,1.1e-4 -5.95835,-1.21565 -1.11123,-0.83293 -0.23705,-2.90317 -1.04425,-4.03322 -0.30809,-0.43131 -0.60286,0.87199 -0.90063,1.31049 -0.64786,0.95406 -1.29082,1.91143 -1.93624,2.86715 -6.16423,9.1164 -11.96423,18.47012 -17.78584,27.80664 -4.38077,6.94864 -8.94804,13.77737 -13.31263,20.73638 -2.47816,3.95125 -2.89373,4.68568 -5.20596,8.54273 -2.18335,3.74231 -4.35019,7.51367 -6.05009,11.50667 -0.75964,1.78438 -0.90959,2.3132 -1.52156,4.08714 -1.13654,4.35479 -1.60157,6.92983 5.23374,9.11867 1.50578,0.48219 2.9918,-1.07581 4.35964,-1.86884 1.44827,-0.83965 5.12612,-4.37819 6.20192,-5.3724 1.19356,-1.21678 2.42689,-2.39579 3.58068,-3.65035 2.9399,-3.19664 6.06632,-7.02435 8.74847,-10.40581 4.64309,-5.85366 9.05345,-11.88625 13.49633,-17.89149 6.50911,-9.00901 13.45016,-17.68748 20.69145,-26.11521 1.52883,-1.72252 3.04863,-3.46017 4.70871,-5.05971 0.29661,-0.2858 0.59103,-0.57594 0.91381,-0.83182 0.0391,-0.031 0.19881,-0.003 0.14944,-0.011 -2.18184,-0.33502 -4.36702,-0.64789 -6.55053,-0.97183 -0.36558,-1.11915 -0.20224,-2.59194 -1.09674,-3.35746 -0.47326,-0.40502 -0.617,1.08242 -0.93739,1.61662 -0.61312,1.02226 -1.23255,2.04081 -1.86295,3.0525 -2.64304,4.24165 -5.38312,8.42386 -8.08814,12.62597 -5.9396,9.36428 -11.80473,18.77657 -17.57829,28.24419 -2.79057,4.60734 -5.57185,9.2243 -8.0696,13.99905 -1.11962,2.1403 -1.62847,3.21727 -2.6639,5.33848 -1.57471,3.29167 -3.06608,6.62265 -4.49825,9.97859 -2.20851,5.20336 -1.6169,6.73786 7.09445,8.11883 0.70086,0.11111 4.35988,-4.52366 4.52795,-4.72497 7.07667,-9.46261 13.75557,-19.21491 20.47409,-28.93276 5.94638,-8.60209 12.06075,-17.08949 18.50303,-25.32765 3.27802,-4.15306 6.72984,-8.16554 10.31776,-12.05303 0.62591,-0.70368 1.30882,-1.35268 2.06155,-1.91868 0.14498,-0.10901 0.29059,-0.21803 0.44508,-0.3131 0.0312,-0.0192 0.13985,-0.0424 0.10678,-0.0265 -0.33393,0.16017 -0.67415,0.30689 -1.01123,0.46033 -1.11903,-0.15811 -2.38299,0.0987 -3.35709,-0.47433 -1.00146,-0.58911 -1.50368,-1.77998 -2.13415,-2.75593 -0.16426,-0.25428 0.0655,-0.9934 -0.21601,-0.88208 -0.4268,0.16877 -0.42048,0.816 -0.63839,1.21993 -1.80723,3.35003 -1.51719,2.77788 -3.64018,6.43147 -5.26874,8.68859 -10.93614,17.12782 -16.75408,25.45586 -5.1655,7.27139 -10.14778,14.66838 -14.8514,22.24666 -3.13013,5.09835 -5.87326,10.4162 -8.16097,15.94179 -0.61088,1.75315 -1.42459,3.46402 -1.86776,5.27488 -0.1395,0.57 -0.34915,1.14641 -0.31425,1.73219 0.0655,1.09891 -0.18898,2.4891 0.61076,3.24561 1.55391,1.4699 3.85059,1.86386 5.77588,2.79579 1.03984,-0.4908 2.15936,-0.83976 3.11952,-1.47241 1.23308,-0.81247 3.87147,-3.7318 4.75679,-4.75143 2.95527,-3.40356 5.58003,-7.05574 8.21457,-10.70672 3.69763,-5.21896 7.13549,-10.61408 10.7169,-15.91178 2.42383,-3.58537 2.72141,-3.96713 5.20675,-7.48133 4.6113,-6.30087 9.30564,-12.54078 13.97205,-18.801 2.61821,-3.54252 5.29261,-7.04355 8.23257,-10.32629 1.2076,-1.30926 2.4789,-2.55763 3.75868,-3.79574 0.11531,-0.23194 1.31156,-1.05683 0.32834,-0.35982 -1.19952,0.72255 -2.90518,0.65025 -4.13456,0.0634 -0.73621,-0.35146 -1.24813,-1.05084 -1.8722,-1.57626 -0.56188,-0.04 -0.48052,-1.30125 -0.68948,-1.65552 -0.0334,-0.0566 -0.0514,0.12107 -0.0723,0.18336 -0.06,0.17899 -0.10839,0.36179 -0.17031,0.54013 -0.10002,0.28806 -0.21026,0.57246 -0.31538,0.85869 -1.58504,3.79362 -3.77421,7.3035 -5.93034,10.79201 -3.41419,5.27594 -6.97139,10.45763 -10.45725,15.68634 -3.2578,4.86998 -6.35687,9.84257 -9.4404,14.8238 -3.12092,4.95917 -6.07888,10.01525 -8.90268,15.14859 -2.04803,3.75201 -3.93814,7.58645 -5.84333,11.41199 -0.88987,1.84471 -0.46693,0.92658 -1.27129,2.75324 -2.83493,6.4779 6.3262,10.4871 9.16113,4.0092 v 0 c 0.63161,-1.45522 0.28156,-0.68533 1.06151,-2.30448 1.84469,-3.70406 3.6732,-7.41755 5.65445,-11.05134 2.73968,-4.98367 5.61334,-9.89011 8.64297,-14.70382 3.02431,-4.88571 6.06282,-9.76361 9.25814,-14.54017 3.55022,-5.32539 7.17592,-10.60113 10.64548,-15.97963 2.53037,-4.1019 5.0884,-8.23866 6.85878,-12.73819 0.75428,-2.21033 1.6698,-4.91227 0.82892,-7.24077 -0.18904,-0.52348 -0.45734,-1.01484 -0.686,-1.52226 -0.69171,-0.62737 -1.24756,-1.44946 -2.07513,-1.8821 -1.80058,-0.9413 -3.7519,-0.58925 -5.39187,0.34663 -0.78295,0.50044 -1.49291,1.08331 -2.14081,1.75044 -1.4533,1.4064 -2.89485,2.82663 -4.26116,4.31851 -3.13072,3.50917 -6.00661,7.22749 -8.7941,11.0137 -4.71642,6.32735 -9.46217,12.63339 -14.1196,19.00424 -2.57199,3.63858 -2.85589,4.00013 -5.36044,7.70507 -3.51338,5.1973 -6.88674,10.48956 -10.50949,15.61279 -2.40729,3.34173 -4.80538,6.68137 -7.48759,9.81206 -0.61898,0.72247 -1.2701,1.41686 -1.91517,2.11615 -0.33562,0.36382 -1.07727,0.58051 -1.02663,1.07289 0.0386,0.37508 0.74881,-0.0891 1.12322,-0.13372 1.54695,0.98258 3.40428,1.59517 4.64084,2.94774 0.52922,0.57886 0.14179,1.56231 0.19764,2.34463 0.004,0.0561 -0.0552,-0.1087 -0.0419,-0.16332 0.099,-0.40775 0.24045,-0.80415 0.37337,-1.20213 0.42739,-1.27962 0.70452,-1.96125 1.19633,-3.24991 2.06512,-5.026 4.58104,-9.84645 7.41421,-14.48364 4.60536,-7.42585 9.49308,-14.66799 14.55215,-21.79239 5.97678,-8.55798 11.79986,-17.22978 17.20494,-26.16272 1.1423,-1.97058 3.10043,-5.24958 4.11828,-7.36481 1.59699,-3.31875 2.96868,-7.25945 -0.76768,-10.1033 -1.08919,-0.82901 -2.6726,-0.5929 -4.00891,-0.88935 -0.64833,0.21682 -1.31634,0.38187 -1.94499,0.65046 -0.36696,0.15679 -0.69268,0.39757 -1.02499,0.61849 -1.48537,0.98747 -2.77036,2.25495 -3.98717,3.5474 -3.77057,4.08906 -7.40141,8.30646 -10.84601,12.67473 -6.55996,8.39414 -12.79491,17.03525 -18.85025,25.7997 -6.55879,9.48685 -13.086,19.00098 -19.9656,28.25982 -0.51989,0.6422 -1.06614,1.26393 -1.55967,1.92662 -0.10925,0.1467 -0.3876,0.38188 -0.24194,0.49252 2.17642,1.65324 4.79596,2.70684 6.84093,4.52016 0.37505,0.33256 -0.59885,2.08798 -0.14876,0.90798 0.12336,-0.32341 0.26805,-0.63827 0.40208,-0.95741 1.36512,-3.20104 2.78806,-6.3777 4.28785,-9.51807 0.96668,-1.98279 1.44901,-3.00414 2.49138,-5.00118 2.40728,-4.61204 5.10093,-9.06486 7.79237,-13.51451 5.73096,-9.39849 11.5537,-18.74152 17.44895,-28.03777 2.75079,-4.27323 5.54322,-8.52351 8.22323,-12.84183 0.12015,-0.1936 3.48885,-5.60318 3.60113,-6.30466 0.31571,-1.97236 -0.0618,-3.99446 -0.0928,-5.99169 -2.34221,-0.54756 -4.62714,-1.47482 -7.02664,-1.64266 -0.60553,-0.0423 -1.01674,0.66679 -1.48997,1.04693 -0.44018,0.3536 -0.83883,0.75637 -1.2442,1.14939 -1.82864,1.77293 -3.51504,3.68562 -5.20081,5.59221 -7.39786,8.61302 -14.4925,17.47947 -21.14522,26.68405 -4.35334,5.88449 -8.67433,11.796 -13.21993,17.535 -2.39531,3.02416 -5.48903,6.82562 -8.13249,9.71521 -1.04253,1.13959 -2.15791,2.21034 -3.23686,3.31551 -0.92691,0.86467 -1.83678,1.74795 -2.78072,2.59399 -0.63548,0.56959 -1.54918,0.90154 -1.95615,1.65164 -0.14966,0.27584 0.67029,0.0951 0.88346,0.32547 1.50763,1.62893 2.81773,3.43035 4.19996,5.16696 0.0227,0.0285 -0.11095,0.0119 -0.10672,-0.0243 0.0406,-0.3476 0.15286,-0.68302 0.22929,-1.02453 0.46466,-1.37263 0.59584,-1.83493 1.17888,-3.21988 1.53254,-3.64039 3.5307,-7.06052 5.50867,-10.47036 2.24413,-3.74518 2.6596,-4.47872 5.06868,-8.32033 4.3793,-6.98336 8.96442,-13.83445 13.35809,-20.8086 5.75792,-9.23438 11.49297,-18.48676 17.5893,-27.50375 0.68388,-1.01402 1.38435,-2.01705 2.05164,-3.04207 0.53728,-0.82531 1.39131,-1.53803 1.56146,-2.50801 0.35733,-2.03707 1.26241,-4.59235 -0.0332,-6.20442 -3.29575,-4.10083 -6.50006,-1.94781 -9.11326,-0.0996 -1.34021,1.04134 -1.99636,1.52255 -3.32093,2.68657 -3.58046,3.14649 -6.72402,6.74186 -9.88277,10.2996 -8.49157,9.77621 -16.72783,19.76931 -25.21864,29.5461 -3.97792,4.40516 -3.77629,4.27248 -7.64672,8.24469 -0.91533,0.93941 -1.84863,1.86114 -2.77646,2.7882 -0.64395,0.64341 -1.4156,1.17831 -1.93887,1.92318 -0.10161,0.14463 0.34793,0.0626 0.5219,0.0938 1.99697,2.07415 3.99394,4.1483 5.99091,6.22245 -0.35631,0.40629 -0.22942,0.28618 0.37526,-0.90302 1.01041,-1.98712 2.10272,-3.94273 3.19202,-5.88687 0.53566,-0.95603 1.08181,-1.90614 1.62272,-2.85921 1.65967,-2.81164 2.41961,-4.16016 4.22983,-6.9598 3.71341,-5.74305 7.91141,-11.14582 12.26483,-16.41459 7.1528,-8.53172 14.52751,-16.87373 21.64069,-25.43901 0.72176,-0.88363 1.45799,-1.75565 2.1653,-2.6509 0.56801,-0.71893 1.83569,-1.29159 1.66004,-2.19084 -0.59493,-3.04573 -1.65376,-6.23402 -3.75224,-8.52023 -1.08747,-1.18477 -4.88931,2.28924 -5.72524,2.94398 -5.39273,4.47073 -10.6296,9.13404 -15.48185,14.19356 -1.18999,1.25525 -2.39495,2.49646 -3.56995,3.76575 -6.81769,7.36477 -13.21986,15.10142 -19.83795,22.64265 -1.07262,1.22419 -2.13256,2.45961 -3.21786,3.67258 -0.63231,0.70669 -1.32169,1.36217 -1.93446,2.08585 -0.14959,0.17666 -0.55166,0.50361 -0.343,0.60383 0.37018,0.1778 9.24517,1.3986 5.62877,5.50585 0.12211,-0.32387 0.21418,-0.66072 0.36633,-0.97161 0.51491,-1.05216 1.76443,-3.0974 2.31445,-4.0017 1.76637,-2.90414 3.58942,-5.7733 5.42712,-8.63267 4.46918,-6.94548 8.94132,-13.88934 13.54093,-20.74961 2.40789,-3.64037 4.85133,-7.26423 7.102,-11.00548 1.07838,-1.79257 2.53494,-4.2516 3.36295,-6.2353 0.38921,-0.93246 0.65639,-1.91129 0.98459,-2.86693 -0.0977,-1.35773 0.43734,-2.92455 -0.29314,-4.07319 -0.98789,-1.55341 -2.6961,-2.6536 -4.4108,-3.32355 -0.96108,-0.37551 -2.07346,0.13123 -3.06943,0.40093 -0.64711,0.17524 -1.21865,0.56605 -1.79097,0.91523 -1.1831,0.72182 -2.33974,1.75551 -3.39477,2.63392 -5.55167,4.74995 -11.03925,9.57996 -16.24623,14.70945 -1.86522,1.84794 -3.77735,3.70299 -5.56515,5.62802 -1.81575,1.95512 -3.9872,4.25574 -5.06267,6.75898 -0.27416,0.63814 -0.41231,1.32647 -0.61846,1.98971 -0.83592,7.02148 9.09396,8.20366 9.92988,1.18217 z" /><path
         style="fill:#ff5555;fill-opacity:1;stroke:none;stroke-width:16.5;stroke-linecap:round;stroke-linejoin:round;stroke-miterlimit:6.6;stroke-dasharray:none;stroke-opacity:1;paint-order:fill markers stroke"
         id="path2793"
         d="m 269.30243,175.76463 c -0.0659,0.22124 -0.29186,0.45294 -0.19771,0.66371 0.0657,0.147 0.22829,-0.22709 0.3417,-0.34136 1.07436,-1.08244 1.17128,-1.21323 2.45734,-2.37104 1.77553,-1.59848 2.34111,-2.02227 4.24878,-3.58553 5.32151,-4.18834 10.92626,-7.99665 16.66248,-11.58938 0.93558,-0.56554 3.18745,-1.93863 4.21313,-2.51651 0.47685,-0.26867 0.9555,-0.53615 1.45117,-0.76827 0.23862,-0.11175 0.48684,-0.30713 0.74621,-0.26076 0.23076,0.0412 -0.41543,0.32295 -0.64564,0.27874 -1.20523,-0.23148 -2.34678,-0.71923 -3.52017,-1.07884 -0.5074,-1.0821 -0.92127,-2.2132 -1.5222,-3.24629 -0.0534,-0.0918 -0.19601,0.10209 -0.25562,0.18993 -0.27943,0.41179 -0.48674,0.86853 -0.74943,1.29119 -0.37573,0.60453 -0.76117,1.20341 -1.1652,1.7894 -1.33019,1.9292 -1.81269,2.47258 -3.30647,4.36313 -3.3892,4.13501 -7.23966,7.84891 -11.02562,11.61123 -3.7594,3.73592 -3.23365,3.22415 -6.93257,6.99684 -5.09642,5.20578 -9.90335,10.68206 -14.5618,16.27993 -0.8562,1.08421 -1.65826,2.015 -2.35418,3.20941 -0.29678,0.50936 -0.63796,1.01476 -0.78139,1.58657 -0.24371,0.97163 -0.92583,2.1531 -0.36478,2.98297 1.3193,1.95138 3.2437,3.6521 5.43494,4.51635 1.07816,0.42524 2.206,-0.71177 3.30901,-1.06765 0.76126,-0.51063 1.54308,-0.99188 2.28379,-1.53189 2.23113,-1.62657 4.25545,-3.36986 6.34266,-5.18559 3.77415,-3.28324 7.45065,-6.68021 11.14761,-10.04941 4.76597,-4.35239 9.66838,-8.56162 14.83225,-12.43759 2.89786,-2.17512 3.4886,-2.52857 6.40562,-4.51025 0.93416,-0.59249 1.85914,-1.19973 2.80249,-1.77749 1.46023,-0.89434 3.11239,-1.82593 4.62428,-2.64918 0.59218,-0.32245 1.18564,-0.64287 1.78642,-0.94899 1.34478,-0.68521 1.37773,-1.10211 1.29165,-0.52399 -1.9721,-0.99149 -3.9442,-1.98298 -5.9163,-2.97447 -0.084,-1.01219 0.56948,-2.43914 -0.2519,-3.03656 -0.62758,-0.45647 -1.0642,1.1299 -1.60707,1.68445 -2.86454,2.92621 -5.81766,5.76638 -8.74403,8.63021 -7.62724,7.51953 -15.04037,15.2503 -22.19982,23.21578 -4.11081,4.65728 -8.01916,9.49716 -11.58878,14.58319 -1.75442,2.49971 -2.38621,3.52912 -4.00777,6.04158 -1.3519,2.18862 -2.72982,4.36594 -3.99026,6.60965 -0.27672,0.4926 -1.47591,2.64769 -1.55296,3.26521 -0.15531,1.24483 0.004,2.50895 0.006,3.76342 2.27322,1.09548 4.31347,2.99203 6.81964,3.28644 1.38712,0.16296 2.49748,-1.26841 3.65058,-2.05645 1.66873,-1.14042 5.12823,-4.3993 6.47996,-5.70208 3.01596,-2.90675 4.62993,-4.65609 7.57531,-7.72937 6.46899,-6.88481 13.03305,-13.69174 19.98604,-20.09278 1.0795,-0.9938 2.18222,-1.96207 3.27333,-2.9431 4.1226,-3.70625 8.58473,-6.98654 13.29267,-9.90216 1.93159,-1.11276 3.85099,-2.27314 5.87759,-3.20941 -2.67676,1.25826 -5.67409,-0.71522 -6.0893,-3.49658 -0.0839,-0.10839 0.0394,-0.27599 -0.0242,-0.38946 -0.0523,-0.0933 -0.20233,0.19814 -0.44349,0.48578 -1.11967,1.33553 -1.1385,1.28426 -2.59085,2.76324 -4.68402,4.44371 -9.8221,8.36735 -14.76681,12.50898 -1.15755,0.96955 -2.30054,1.95636 -3.45082,2.93453 -6.36147,5.53387 -12.50359,11.31653 -18.37978,17.36241 -4.44367,4.61718 -8.3591,9.70034 -12.26317,14.77104 -1.51227,2.13461 -3.40974,4.11538 -4.4159,6.57158 -0.15404,0.37603 -0.26017,0.76995 -0.39025,1.15493 -0.0235,4.53655 -0.84272,4.80098 7.41779,5.83713 0.99271,0.12452 1.55246,-1.26577 2.2755,-1.9573 0.75273,-0.71992 1.43103,-1.51385 2.14588,-2.2714 5.47846,-5.80568 0.19375,-0.21504 6.40958,-6.78581 8.55254,-9.05475 17.53948,-17.68434 26.4999,-26.33116 4.91092,-4.64061 9.7716,-9.34767 14.91403,-13.73534 2.39871,-2.04665 3.04715,-2.50492 5.46095,-4.37195 3.06268,-2.30682 6.27847,-4.39792 9.54972,-6.39388 0.0778,-0.0308 0.15557,-0.0617 0.23335,-0.0925 6.34197,-3.12721 1.91941,-12.09611 -4.42255,-8.96889 v 0 c -0.34032,0.17532 -0.68064,0.35064 -1.02096,0.52596 -3.58648,2.19009 -7.10958,4.48838 -10.46369,7.02398 -2.65693,2.06117 -3.30191,2.51437 -5.93855,4.76618 -5.25834,4.49085 -10.23418,9.30181 -15.25635,14.05064 -9.06964,8.75233 -18.16434,17.48896 -26.82042,26.65487 -4.77843,5.05133 -2.12806,2.24544 -6.4167,6.79336 -0.66454,0.70471 -1.39383,1.35351 -1.99388,2.11387 -0.0551,0.0699 0.16853,0.0586 0.24825,0.0981 2.30524,1.14233 4.93939,1.78797 6.90578,3.44699 0.58551,0.49398 -0.0658,1.53069 -0.0987,2.29603 -0.0546,0.11568 -0.0952,0.23906 -0.16381,0.34704 -0.0322,0.0506 0.0255,-0.1185 0.0526,-0.17199 0.0979,-0.19346 0.20457,-0.38287 0.32092,-0.56585 0.87409,-1.3746 1.92082,-2.62944 2.89127,-3.93424 3.67046,-4.76787 7.34148,-9.55634 11.51272,-13.90404 5.65124,-5.82244 11.5687,-11.3813 17.6857,-16.71267 1.11058,-0.94494 2.2139,-1.89848 3.33173,-2.83483 5.2289,-4.38001 10.66855,-8.52468 15.58565,-13.26427 2.67549,-2.78547 5.67658,-5.70403 5.87951,-9.80182 -0.0159,-0.35972 0.01,-0.7237 -0.0478,-1.07917 -0.1993,-1.2336 -0.6073,-2.59549 -1.61509,-3.4524 -1.8547,-1.577 -2.97147,-1.74533 -5.18421,-1.47031 -0.459,0.0571 -0.87953,0.28666 -1.31929,0.42999 -2.36564,1.12376 -4.64375,2.42617 -6.8948,3.76182 -5.20447,3.23559 -10.14767,6.86027 -14.70783,10.96464 -1.14528,1.03086 -2.30257,2.04852 -3.43583,3.09257 -7.07863,6.52141 -13.76923,13.44796 -20.35683,20.46016 -3.3061,3.45305 -6.59376,6.92224 -10.15093,10.12199 -0.74163,0.66712 -1.57096,1.23683 -2.27909,1.93942 -0.15461,0.1534 -0.43504,0.44709 -0.27365,0.59335 1.538,1.3938 3.33964,2.46562 5.00946,3.69843 -0.10349,0.88837 -0.26171,1.77206 -0.31047,2.6651 -0.0113,0.20747 0.1091,-0.40315 0.19723,-0.59131 0.20671,-0.44128 0.44629,-0.86665 0.68475,-1.29161 1.18774,-2.11664 2.48691,-4.17038 3.76042,-6.23541 1.49376,-2.31879 2.09868,-3.30434 3.71147,-5.60756 3.36007,-4.7985 7.04538,-9.3608 10.91915,-13.75281 7.0141,-7.80846 14.28297,-15.38119 21.75579,-22.75244 0.9064,-0.88703 5.38225,-5.26327 6.36993,-6.24493 0.90502,-0.89952 1.81533,-1.79418 2.69718,-2.71643 1.7227,-1.80162 5.44274,-5.37868 4.12606,-8.31647 -0.99257,-2.21463 -4.11848,-2.56853 -6.17772,-3.8528 -0.60831,0.19079 -1.23206,0.33798 -1.82493,0.57237 -0.74085,0.29291 -3.00918,1.51655 -3.60568,1.84218 -2.79256,1.52444 -5.54027,3.13346 -8.18968,4.89712 -3.14274,2.14099 -3.78715,2.52849 -6.8986,4.86807 -5.37558,4.04205 -10.48522,8.42311 -15.45014,12.95667 -4.64086,4.2295 -9.22811,8.54885 -14.07485,12.54483 -1.52107,1.25406 -2.16886,1.7104 -3.56211,2.7333 3.08018,-0.11957 2.82255,-0.44177 5.80739,4.45826 0.36627,0.6013 -0.28926,1.37833 -0.45474,2.06268 -0.0115,0.0474 -0.0318,-0.10321 -0.009,-0.1462 0.16552,-0.30752 0.35705,-0.60154 0.56295,-0.88362 0.36091,-0.49442 0.75704,-0.96213 1.13555,-1.4432 4.48336,-5.39004 9.10987,-10.66296 14.01543,-15.67516 3.6543,-3.72802 3.09166,-3.17817 6.82191,-6.88571 4.07901,-4.05417 8.21728,-8.06641 11.85198,-12.5363 1.90065,-2.4209 3.79324,-4.83311 5.36099,-7.49054 0.50813,-0.8613 2.19864,-3.88358 2.15797,-4.91098 -0.0703,-1.77512 -0.82984,-3.45474 -1.24476,-5.18212 -1.43807,-0.62891 -2.78266,-1.54338 -4.31423,-1.88674 -0.7686,-0.17232 -1.57013,0.18768 -2.3294,0.39732 -0.61642,0.1702 -1.19467,0.46018 -1.77204,0.73512 -2.18367,1.03984 -4.17743,2.43931 -6.27167,3.63639 -6.09381,3.82191 -12.05016,7.87001 -17.69645,12.33317 -2.26263,1.86013 -4.52433,3.71358 -6.60537,5.77998 -0.77404,0.76859 -2.03481,2.07516 -2.63486,3.03996 -0.34756,0.55884 -0.58201,1.18054 -0.87302,1.77082 -1.96076,6.79377 7.64709,9.56671 9.60785,2.77293 z" /><path
         style="fill:#ff5555;fill-opacity:1;stroke:none;stroke-width:16.5;stroke-linecap:round;stroke-linejoin:round;stroke-miterlimit:6.6;stroke-dasharray:none;stroke-opacity:1;paint-order:fill markers stroke"
         id="path2806"
         d="m 219.86023,309.73255 c -0.0302,0.11205 -0.18617,0.40206 -0.0906,0.33616 0.17154,-0.11835 0.23212,-0.34624 0.35217,-0.5166 0.22255,-0.31577 0.44537,-0.63144 0.67556,-0.94169 1.17911,-1.58924 2.38972,-3.1535 3.56227,-4.74806 3.10847,-4.40925 6.03208,-8.94435 9.08066,-13.39507 2.09623,-3.01136 4.21435,-6.01038 6.45891,-8.91391 1.17914,-1.52531 2.29619,-2.89191 3.50809,-4.39252 3.54171,-4.39162 7.17142,-8.71055 10.82106,-13.01246 3.53859,-4.22532 7.26845,-8.28229 10.98971,-12.34552 3.7984,-4.13691 7.47171,-8.38586 11.15759,-12.62258 4.35066,-5.02186 8.84015,-9.92025 13.2473,-14.89227 4.41904,-5.0115 8.8806,-9.98498 13.40321,-14.90319 3.48207,-3.7973 7.13526,-7.43122 10.77139,-11.07947 3.19281,-3.16602 6.27746,-6.43673 9.27624,-9.78632 2.28543,-2.64436 4.6545,-5.21018 7.13701,-7.67004 0.31746,-0.30679 0.63273,-0.61589 0.9524,-0.92039 0.36709,-0.34966 1.00631,-0.95407 1.42487,-1.29585 0.11988,-0.0979 0.24546,-0.18948 0.37696,-0.2711 0.0405,-0.0252 0.14914,-0.0925 0.1353,-0.0468 -0.02,0.0661 -0.10715,0.0871 -0.16073,0.13073 -1.28682,0.62812 -2.78562,-0.0491 -3.76444,-0.9569 -0.36302,-0.33668 -0.5652,-0.81308 -0.84779,-1.21961 -0.0529,-0.11875 -0.049,-0.28655 -0.15876,-0.35623 -0.0678,-0.043 -0.0152,0.15995 -0.0248,0.23969 -0.0163,0.13468 -0.0315,0.26956 -0.0528,0.40352 -0.11413,0.71507 -0.33486,1.36556 -0.5716,2.04913 -0.97002,2.46102 -2.36587,4.7222 -3.76757,6.95501 -1.57398,2.53934 -3.39811,4.90284 -5.26527,7.22967 -2.21956,2.71286 -4.40705,5.45168 -6.70927,8.09533 -2.3309,2.57238 -4.82119,4.99373 -7.27225,7.45012 -2.56985,2.55186 -5.05161,5.18936 -7.4974,7.85963 -2.15842,2.37751 -4.29852,4.77176 -6.48349,7.12497 -2.88679,3.0122 -5.70623,6.08634 -8.46226,9.21836 -2.77947,3.22554 -5.57686,6.43565 -8.35012,9.66654 -2.8886,3.49888 -5.92731,6.86801 -8.93136,10.26692 -3.37044,3.81815 -6.61507,7.74453 -9.74637,11.76054 -2.59744,3.35104 -4.98649,6.85475 -7.44542,10.30663 -2.36968,3.22955 -4.8733,6.35524 -7.20097,9.61586 -2.49772,3.69865 -5.01463,7.38335 -7.56583,11.04542 -1.43417,2.05121 -2.83867,4.12691 -4.03184,6.32991 -0.58903,1.08756 -0.90866,1.7763 -1.44161,2.87539 -0.9276,1.96545 -1.79914,3.9567 -2.67728,5.94457 -0.61305,1.46378 -1.86837,4.20099 0.11046,5.16379 2.61108,1.27042 5.83843,0.28829 8.71008,-0.14226 0.5212,-0.0781 0.60275,-0.8647 0.90155,-1.29883 0.75142,-1.09172 2.62937,-3.84728 3.25183,-4.75963 4.99302,-7.4142 9.72727,-14.9983 14.65328,-22.45646 1.08933,-1.64929 2.19851,-3.28537 3.29777,-4.92805 5.97353,-8.7729 11.9897,-17.51774 18.10269,-26.19417 3.22471,-4.55679 6.52242,-9.06304 9.97401,-13.45121 1.92229,-2.4439 3.07876,-3.84373 5.04007,-6.25275 4.70842,-5.72039 9.41991,-11.43819 14.31836,-16.99745 2.78242,-3.09301 5.63387,-6.1275 8.63358,-9.01174 1.81484,-1.74498 2.76057,-2.58023 4.625,-4.2743 2.80146,-2.51093 5.66216,-4.96105 8.70558,-7.17652 1.57938,-1.14972 2.27649,-1.58673 3.88787,-2.65428 2.82948,-1.82678 5.71373,-3.56703 8.62458,-5.26053 0.27286,-0.15675 0.54456,-0.31552 0.81858,-0.47024 0.20464,-0.11553 0.40954,-0.23071 0.61734,-0.34048 1.33968,-0.70767 -0.74626,0.852 -1.73532,0.16317 -1.80911,-1.25997 -2.94148,-3.2847 -4.41223,-4.92705 0.0561,-0.4478 0.56827,-1.13446 0.16825,-1.34338 -0.38122,-0.19912 -0.52969,0.67775 -0.7959,1.01555 -2.71955,3.45096 -5.45451,6.88959 -8.16873,10.34477 -5.24235,6.81186 -10.65876,13.4858 -16.07732,20.15734 -4.58388,5.5837 -9.06431,11.24816 -13.32786,17.08032 -3.58511,4.97621 -7.14391,9.97139 -10.67622,14.98521 -2.99378,4.28326 -5.88752,8.63517 -8.81303,12.96507 -2.66924,3.98744 -5.37489,7.94977 -8.12023,11.88515 -2.6728,3.78706 -5.30382,7.60327 -7.92292,11.42758 -2.35756,3.41619 -4.57899,6.92256 -6.81422,10.41905 -2.33001,3.57233 -4.575,7.19503 -6.6229,10.9365 -1.48993,2.84586 -2.9906,5.68495 -4.55601,8.49011 -1.00152,1.78991 -2.02975,3.56483 -3.02816,5.35647 -1.71768,3.37004 -1.26768,2.07021 8.18313,5.78883 0.57733,0.22717 0.68559,-1.03435 1.01651,-1.55915 2.37047,-3.75937 0.75365,-1.3745 3.70814,-5.87593 0.91057,-1.38733 1.84558,-2.75845 2.76836,-4.13768 6.15594,-8.85867 12.0866,-17.87239 18.26176,-26.71776 1.26272,-1.80873 2.54863,-3.60116 3.82295,-5.40173 6.44996,-9.11857 13.41159,-17.85422 20.36276,-26.59086 4.7514,-6.08108 9.60697,-12.07861 14.48188,-18.06072 4.16592,-5.04987 8.28576,-10.13773 12.46941,-15.17295 3.3399,-3.97404 6.87178,-7.78222 10.46798,-11.52415 2.52645,-2.58906 5.08434,-5.14751 7.67216,-7.67521 0.50315,-0.47849 0.60461,-0.58492 1.08352,-1.00878 0.11726,-0.10379 0.23459,-0.20764 0.35613,-0.30638 0.0384,-0.0312 0.16927,-0.10035 0.12302,-0.0829 -0.86722,0.32754 -1.80924,1.51509 -2.58941,1.01441 -2.22682,-1.42909 -3.45962,-4.00438 -5.18942,-6.00657 -0.14758,0.20931 -0.29515,0.41861 -0.44272,0.62792 -0.38015,0.55776 -0.7515,1.12162 -1.14045,1.67328 -1.32986,1.88619 -2.70656,3.73893 -4.05188,5.61413 -2.43994,3.40096 -3.05494,4.28479 -5.50014,7.74523 -5.63917,8.02009 -11.58022,15.82082 -17.47886,23.65009 -4.81846,6.32976 -9.39077,12.84035 -13.95605,19.35333 -3.64872,5.17641 -7.05192,10.51754 -10.4014,15.8903 -3.3036,5.33258 -6.29765,10.84659 -9.26235,16.37195 -2.42846,4.52267 -4.76604,9.09299 -7.05853,13.68579 -1.93922,3.91522 -3.79163,7.87254 -5.62901,11.8363 -1.23051,2.66139 -2.41478,5.34378 -3.64272,8.00633 -0.62057,1.46482 -1.45916,2.83825 -2.04995,4.31605 -0.12363,0.30925 -0.22408,0.62727 -0.33612,0.9409 1.92095,2.14563 3.04523,5.4838 5.76284,6.43689 1.56626,0.54931 2.74444,-1.89062 3.95136,-3.03003 0.55378,-0.52281 0.85625,-1.25985 1.26997,-1.89926 0.60576,-0.93621 1.19691,-1.88181 1.78821,-2.82721 1.89035,-3.02236 3.01146,-4.8761 4.92608,-8.00728 5.43621,-8.9073 10.99858,-17.74282 16.98787,-26.29122 1.16158,-1.6579 2.35539,-3.29299 3.53308,-4.93948 5.86387,-7.97333 12.22732,-15.55895 18.3677,-23.31727 3.76122,-4.81196 7.44658,-9.68239 11.18513,-14.51191 2.5024,-3.28549 5.1371,-6.46449 7.93288,-9.50374 1.73711,-1.85581 3.61988,-3.56715 5.58276,-5.17966 1.30739,-1.09308 2.65093,-2.13693 4.06631,-3.08607 0.99799,-0.64823 2.01566,-1.26884 3.06769,-1.82587 -1.8936,0.89567 -3.09619,1.61572 -5.8154,-1.18535 -1.15471,-1.18947 -0.35686,-3.32653 -0.90976,-4.88937 -0.10022,-0.28328 -0.38209,0.46386 -0.57412,0.69498 -1.80168,2.16838 -1.02257,1.24191 -3.14972,3.69292 -5.41626,6.11644 -10.67993,12.36502 -15.96015,18.59856 -4.5282,5.4083 -9.02617,10.85259 -13.1982,16.54364 -0.69142,0.94317 -1.36193,1.90147 -2.04289,2.85221 -3.26889,4.54183 -6.16862,9.32349 -8.86246,14.22309 -1.92586,3.60276 -3.79336,7.23677 -5.63074,10.88537 -1.5919,3.11911 -3.01532,6.31688 -4.30111,9.57294 -1.13673,2.96868 -2.04663,6.01631 -3.0286,9.03785 -1.05484,3.22366 -2.25076,6.39843 -3.42282,9.58061 -1.17552,3.11758 -2.21986,6.2803 -3.15901,9.47636 -0.65336,2.4074 -1.34755,4.81313 -1.78285,7.27172 0.2097,4.67159 -0.50281,4.05328 8.91765,4.3127 0.80051,0.022 1.01221,-1.24239 1.48098,-1.89165 0.50922,-0.70529 0.97828,-1.43891 1.45097,-2.1692 1.60276,-2.47616 2.35351,-3.76833 3.92922,-6.37468 3.68069,-6.14759 7.18478,-12.39812 10.81228,-18.5768 2.47278,-4.21185 3.37191,-5.67999 5.85998,-9.81218 4.63118,-7.64809 9.28095,-15.28475 13.98101,-22.8907 2.38867,-3.81192 4.71603,-7.66389 7.183,-11.42633 1.40128,-2.13712 1.88986,-2.81336 3.32617,-4.88362 1.29615,-1.84244 2.62291,-3.66306 3.96235,-5.47417 0.66905,-0.90467 1.33153,-1.80619 2.06575,-2.65875 0.0351,-0.0245 0.13833,-0.10075 0.10524,-0.0736 -1.59676,1.31019 -2.5194,2.19866 -5.56046,0.71338 -2.41766,-1.18081 -2.58714,-2.96556 -2.49069,-4.90169 -3.01001,4.72152 -5.94186,9.49055 -8.81331,14.29771 -5.09397,8.46994 -9.74727,17.18961 -14.28974,25.96388 -2.29063,4.47105 -4.54965,8.96152 -6.59403,13.55185 -1.17555,2.6395 -1.45354,3.38238 -2.52691,6.02034 -1.90899,4.7218 -3.42912,9.58425 -4.84016,14.47364 -0.79853,2.80432 -1.48959,5.63798 -2.33349,8.42929 -0.48142,1.5885 -1.11328,3.12448 -1.77727,4.64375 -0.0563,0.12804 -0.12182,0.25238 -0.16874,0.38413 -0.0335,0.094 0.0335,-0.30187 0.12831,-0.27059 3.14992,1.03958 6.10725,2.71278 9.35242,3.39955 0.45707,0.0967 0.31249,-0.88059 0.46715,-1.32145 0.54024,-1.53993 1.07585,-3.08149 1.61405,-4.62215 3.25977,-9.33161 7.07487,-18.4512 11.01238,-27.51276 2.64924,-5.94995 5.29378,-11.90516 8.15158,-17.75893 1.4862,-3.04426 1.84298,-3.69085 3.36723,-6.63086 2.38592,-4.50461 4.90988,-8.93472 7.50082,-13.32408 1.14683,-1.93425 2.41535,-3.78977 3.83097,-5.53613 0.84263,-1.02163 1.755,-1.98207 2.62297,-2.98161 3.13927,-3.94991 0.27093,-4.09735 -6.69691,-7.56123 -0.50079,-0.24896 -0.85127,0.72612 -1.26038,1.10743 -1.01436,0.94543 -2.32624,2.33047 -3.24749,3.28052 -5.35011,5.55536 -10.48422,11.31024 -15.53337,17.13858 -5.00768,5.75133 -9.69549,11.76419 -14.20032,17.91381 -3.41775,4.7304 -6.63273,9.60175 -9.75958,14.52778 -2.27723,3.59682 -4.40247,7.28618 -6.49668,10.99152 -1.51862,2.70214 -2.9616,5.4457 -4.48582,8.1447 -0.53203,0.92908 -1.08331,1.84708 -1.65473,2.75247 -0.1645,0.26065 -0.32336,0.52519 -0.49922,0.77831 -0.0669,0.0963 -0.30623,0.3555 -0.22787,0.2682 0.20668,-0.23023 0.40857,-0.46471 0.61285,-0.69707 1.36243,-0.28454 2.74166,-1.20922 4.08729,-0.85364 1.36354,0.36032 2.16198,1.81379 3.19198,2.7772 0.1181,0.11046 0.14749,0.5634 0.23242,0.4258 0.20962,-0.33964 0.1463,-0.78481 0.23002,-1.17504 0.56276,-2.62312 0.49897,-2.22374 1.27131,-5.07929 2.6366,-8.73033 5.95284,-17.23697 9.27831,-25.72264 3.16272,-7.90926 6.28159,-15.83467 9.242,-23.82197 1.75225,-4.82008 3.61465,-9.59883 5.41431,-14.40111 0.25104,-0.7099 0.84963,-2.2622 0.91466,-3.01966 0.0734,-0.8547 0.58232,-1.98427 -0.0414,-2.57321 -1.87798,-1.77322 -4.19653,-3.36302 -6.7373,-3.82737 -1.35174,-0.24704 -4.51884,3.42855 -5.30627,4.2534 -6.59393,7.63839 -11.31341,16.60436 -16.03223,25.45712 -4.75323,8.96532 -9.20757,18.08314 -13.53534,27.25987 -2.11857,4.38639 -4.03078,8.87255 -6.18079,13.24363 -0.091,0.14962 -0.3799,0.58752 -0.27295,0.44886 1.74408,-2.26122 -0.27932,-2.64893 6.97533,-1.24867 1.25845,0.2429 1.73895,3.42145 1.50203,1.47069 -0.0108,-0.21583 -0.0499,-0.43212 -0.0323,-0.6475 0.0254,-0.31074 0.0953,-0.61657 0.16077,-0.9214 0.17203,-0.8014 0.34179,-1.60395 0.55145,-2.39634 0.32904,-1.24358 0.66451,-2.48678 1.06409,-3.70953 1.2311,-3.76728 2.80801,-7.71674 4.22273,-11.40049 5.17485,-12.89239 11.41753,-25.31298 17.67297,-37.70442 2.86482,-5.65409 5.75419,-11.29569 8.6637,-16.9269 1.13953,-2.2268 3.09065,-5.63624 -0.32753,-7.85795 -2.01083,-1.30698 -4.86405,-0.31969 -7.18989,0.26521 -0.47984,0.12067 -4.52721,4.78704 -4.53244,4.79291 -5.86895,6.94609 -11.18883,14.35015 -16.04479,22.03611 -1.08533,1.71786 -2.12316,3.46528 -3.18475,5.19793 -5.6163,9.27073 -10.52473,18.9372 -15.33689,28.6411 -2.61658,5.33463 -5.28645,10.64296 -7.90805,15.97508 -1.02485,2.0813 -1.99698,4.18797 -2.94513,6.30513 -0.2714,0.61064 -0.55657,1.22045 -0.72531,1.86992 -0.0571,0.21987 -0.14537,0.43888 -0.14438,0.66604 0.003,0.78413 0.10497,1.56475 0.15746,2.34712 2.77698,0.69672 5.46791,2.07977 8.33095,2.09017 0.81685,0.003 0.94619,-1.33663 1.3349,-2.05508 0.35874,-0.66307 1.26626,-3.39809 1.41621,-3.87132 0.78151,-2.46646 1.21336,-4.16338 1.90997,-6.71516 1.2313,-4.76202 2.49304,-9.51398 3.9207,-14.22159 0.51156,-1.68685 1.0086,-3.37908 1.58121,-5.0462 1.49567,-4.3545 2.14057,-5.62306 3.96412,-9.84094 3.55536,-7.72655 7.87466,-15.06038 12.16328,-22.39345 1.64126,-2.6999 3.10968,-5.51498 4.91343,-8.11453 0.88289,-1.2724 1.04112,-1.40076 2.01435,-2.53366 0.9744,-1.02021 2.00697,-2.03574 3.26131,-2.71143 0.16321,-0.0879 0.32918,-0.27194 0.50856,-0.22512 0.14225,0.0371 -0.23449,0.17737 -0.35173,0.26605 -0.19788,0.0535 -0.39157,0.19511 -0.59363,0.16059 -0.71628,-0.12235 -1.42582,-0.32478 -2.09022,-0.61905 -0.35842,-0.15875 -0.56287,-0.85457 -0.93067,-0.71895 -0.35969,0.13263 -0.13224,0.75525 -0.19388,1.13362 -0.14794,0.90811 -0.25397,1.82365 -0.43486,2.72577 -0.27257,1.35935 -0.61654,2.70341 -0.9248,4.05511 -1.78002,7.02388 -3.80739,13.98212 -5.53925,21.01858 -1.10598,4.49354 -1.27436,5.41595 -2.23786,9.8622 -0.89819,4.39465 -1.74364,8.80072 -2.47851,13.22588 -0.41364,2.49078 -0.74418,4.51741 -0.96521,7.01687 -0.0853,0.96427 -0.11123,1.93286 -0.16685,2.89929 -0.0471,2.27079 0.19849,4.52429 0.73571,6.72927 0.32387,1.3293 0.79471,2.61504 1.25653,3.90034 0.50687,1.33011 0.96669,2.69551 1.69656,3.92607 0.16798,0.2832 0.35753,0.55304 0.53629,0.82956 0.24232,0.29527 0.45417,0.61843 0.72697,0.88581 0.39643,0.38856 0.78756,0.80419 1.27263,1.0741 1.73142,0.96342 3.06917,1.31666 5.05875,1.00992 2.19231,-0.338 3.27212,-1.20282 5.13913,-2.28743 0.87203,-0.68878 1.77432,-1.34089 2.61609,-2.06634 1.7337,-1.4941 3.6528,-3.45881 5.19537,-5.13381 2.66878,-2.8979 5.11726,-5.9716 7.56127,-9.05755 4.88391,-6.34468 9.60719,-12.81031 14.25128,-19.33185 3.25284,-4.55545 6.35825,-9.21234 9.37582,-13.92605 1.86267,-2.90324 3.64628,-5.85537 5.37789,-8.83827 0.68402,-1.17831 1.36148,-2.3605 1.97899,-3.57526 0.12855,-0.25351 0.25053,-0.51018 0.37041,-0.76787 2.96431,-6.41973 -6.11456,-10.61189 -9.07886,-4.19216 v 0 c -0.0667,0.14791 -0.1392,0.29307 -0.21098,0.43856 -0.52888,1.04764 -1.12359,2.05967 -1.70824,3.07675 -1.6585,2.85778 -3.36703,5.68593 -5.15155,8.46713 -2.92832,4.57532 -5.94209,9.09536 -9.09932,13.51672 -4.54571,6.38411 -9.16919,12.71319 -13.94678,18.92638 -3.91054,4.94465 -7.87325,9.94129 -12.77854,13.95084 -0.30946,0.21995 -0.65677,0.39456 -0.92837,0.65984 -0.0471,0.046 10e-4,0.15879 0.0602,0.18813 0.23472,0.1168 0.51888,0.10551 0.75574,0.21791 0.46092,0.21872 1.21309,0.59805 1.44001,1.15413 -0.1545,-0.11489 -0.27102,-0.42496 -0.34069,-0.58082 -0.28519,-0.63801 -0.51179,-1.3003 -0.76144,-1.95236 -0.80402,-2.22713 -1.48424,-4.273 -1.4157,-6.69713 0.0391,-0.77027 0.0519,-1.54232 0.11729,-2.3108 0.1961,-2.30422 0.49885,-4.12748 0.88224,-6.43946 0.71129,-4.28945 1.53062,-8.56023 2.39944,-12.82029 0.92311,-4.26757 1.0918,-5.1879 2.1537,-9.50529 1.75417,-7.13194 3.81925,-14.18165 5.60779,-21.30463 0.62671,-2.83826 1.46524,-5.97033 1.60157,-8.91432 0.0594,-1.28339 0.15012,-2.60571 -0.16723,-3.85066 -0.34909,-1.3695 -0.84032,-2.79845 -1.79364,-3.84179 -2.22548,-2.43566 -3.45835,-2.07973 -6.06444,-2.14764 -0.76949,0.21036 -1.56008,0.35489 -2.30847,0.63108 -0.50099,0.18489 -0.9586,0.47317 -1.41862,0.74439 -2.08333,1.2283 -3.86996,2.891 -5.49262,4.66787 -1.36767,1.63471 -1.53448,1.75768 -2.75633,3.53056 -1.88726,2.73837 -3.4523,5.68284 -5.16819,8.52687 -4.4943,7.6849 -9.01117,15.37636 -12.71472,23.48435 -2.0438,4.75713 -2.63953,5.89697 -4.32349,10.80979 -0.59149,1.72564 -1.10607,3.4768 -1.63471,5.22272 -1.44383,4.76848 -2.72668,9.57996 -3.97211,14.40338 -0.6508,2.39056 -1.02179,3.85421 -1.73483,6.1412 -0.19019,0.61003 -0.39694,1.21488 -0.60859,1.8178 -0.11567,0.32947 -0.71257,0.89673 -0.37317,0.97883 0.38092,0.0921 0.51928,-0.58712 0.77892,-0.88068 2.7233,0.74825 5.4466,1.49649 8.1699,2.24474 0.0405,0.74251 0.11457,1.48395 0.12149,2.22753 0.001,0.13435 -0.0603,0.26199 -0.0971,0.39119 -0.0158,0.0553 -0.0381,0.10861 -0.0606,0.16157 -0.002,0.005 -0.0149,0.0167 -0.0128,0.0114 0.0484,-0.11936 0.28211,-0.64188 0.31156,-0.70816 0.89902,-2.00796 1.82044,-4.00614 2.79247,-5.97997 2.61634,-5.32204 5.28164,-10.61994 7.89295,-15.9445 4.67996,-9.43816 9.44729,-18.84323 14.90635,-27.86203 1.0121,-1.6543 2.00151,-3.32269 3.03631,-4.96289 4.58693,-7.27042 9.60852,-14.27707 15.14488,-20.85591 0.68942,-0.78038 1.37319,-1.5658 2.06828,-2.34115 0.34568,-0.38559 1.52832,-0.9339 1.05388,-1.14148 -1.75686,-0.76866 -4.29759,0.43976 -5.68455,-0.88452 -1.35753,-1.29619 -0.60899,-3.70713 -1.03811,-5.53438 -0.12484,-0.53155 -0.63338,3.86209 -0.71399,1.47424 -2.92389,5.6591 -5.82756,11.32862 -8.70651,17.01073 -6.40699,12.69234 -12.79395,25.41799 -18.08219,38.62837 -1.58616,4.13706 -3.15028,8.03595 -4.50599,12.25079 -0.45871,1.42612 -0.85726,2.87204 -1.21819,4.32599 -0.59554,2.39909 -1.11191,4.87191 -0.82482,7.35487 0.19793,1.49346 0.50771,4.52575 2.14615,5.0453 4.80796,1.52461 6.08392,1.12079 7.95209,-1.53573 0.23133,-0.32895 0.39587,-0.70013 0.59381,-1.05019 2.16412,-4.42158 4.11678,-8.94484 6.24761,-13.38253 4.25775,-9.02932 8.63959,-18.00089 13.31576,-26.82234 4.30747,-8.08561 8.57447,-16.29711 14.5169,-23.33599 0.42817,-0.47551 1.08882,-0.81733 1.28451,-1.42655 0.0858,-0.2672 -0.60412,0.19603 -0.84075,0.0451 -6.65842,-4.24648 -5.64925,-1.86763 -5.40195,-5.58925 0.0417,-0.62708 -0.58843,4.48907 -0.54552,1.80475 -1.80349,4.81364 -3.6709,9.60332 -5.42686,14.4348 -2.93856,7.92948 -6.03683,15.79657 -9.17594,23.64869 -3.45991,8.83047 -6.9081,17.68452 -9.62549,26.7777 -0.59015,2.21163 -1.10959,3.94411 -1.50133,6.17946 -0.59385,3.3886 -0.88351,7.40505 3.40089,9.05567 1.46817,0.56563 3.11376,-0.45423 4.67064,-0.68135 0.46621,-0.42502 0.96527,-0.81659 1.39863,-1.27506 0.273,-0.28881 0.48473,-0.63033 0.71116,-0.95693 0.89139,-1.28577 1.63499,-2.67205 2.44227,-4.00978 1.52233,-2.69815 2.96875,-5.43784 4.48333,-8.1403 2.01004,-3.55715 4.04858,-7.09975 6.23388,-10.55304 3.00718,-4.73914 6.09877,-9.42591 9.38438,-13.97794 4.3421,-5.93109 8.86234,-11.72894 13.69098,-17.2748 4.92704,-5.68873 9.93701,-11.30572 15.15753,-16.72833 0.56991,-0.58904 1.13454,-1.18322 1.70972,-1.76712 3.70451,-3.76069 1.03773,0.0476 -5.86509,-7.49237 -0.0558,-0.0609 0.97412,-1.60566 0.62055,-1.07418 -0.94221,1.09003 -1.94329,2.12877 -2.84837,3.25112 -1.71338,2.13054 -3.27093,4.37721 -4.66074,6.73333 -2.68361,4.54776 -5.29814,9.13754 -7.76746,13.80568 -1.59019,3.06988 -1.95858,3.73774 -3.50723,6.91174 -2.9104,5.96488 -5.60677,12.03155 -8.30473,18.09437 -4.03439,9.28759 -7.94138,18.63541 -11.28114,28.19964 -0.53416,1.52908 -1.0658,3.05904 -1.60186,4.58746 -0.14897,0.42472 -0.81872,1.01508 -0.44993,1.2731 7.92256,5.54286 7.639,7.5667 9.26524,3.86566 0.81951,-1.88209 1.59232,-3.78714 2.18537,-5.75459 0.85175,-2.83104 1.56732,-5.69942 2.36765,-8.54511 1.31218,-4.55264 2.72081,-9.08203 4.49575,-13.47925 0.98974,-2.43762 1.26917,-3.18149 2.35369,-5.61952 1.9774,-4.44525 4.16673,-8.79189 6.38393,-13.12102 4.449,-8.59487 9.00453,-17.13738 13.99458,-25.43374 2.1049,-3.52519 2.30172,-3.89201 4.35422,-7.19903 1.13219,-1.82421 2.30579,-3.62259 3.43049,-5.45142 0.44301,-0.72036 0.89493,-1.43631 1.29982,-2.17876 0.21635,-0.39672 0.37418,-0.82265 0.56127,-1.23397 0.12958,-0.41942 0.3164,-0.82527 0.38874,-1.25824 0.37023,-2.21571 0.15582,-4.50613 -2.40699,-5.91411 -2.73269,-1.50132 -4.56753,-0.59633 -6.34835,0.85715 -0.26978,0.22018 -0.48743,0.49745 -0.73115,0.74617 -2.38068,2.83192 -4.44034,5.91891 -6.62004,8.90369 -1.54091,2.2233 -2.01566,2.87854 -3.5211,5.17556 -2.4985,3.81225 -4.85798,7.71364 -7.27729,11.57593 -4.72025,7.63875 -9.39015,15.30823 -14.04116,22.98932 -2.52879,4.20025 -3.42257,5.65928 -5.93687,9.9421 -3.59918,6.13078 -7.07676,12.33233 -10.72712,18.43317 -1.57427,2.60656 -2.1207,3.558 -3.69242,6.00169 -0.39228,0.60992 -0.81258,1.20157 -1.20237,1.81308 -0.11308,0.17741 -0.49511,0.46143 -0.30539,0.55236 8.32629,3.99045 7.94145,0.12817 7.84311,4.57712 0.10906,-0.76951 0.31928,-1.52505 0.50545,-2.27866 0.31646,-1.28103 0.64571,-2.55905 1.00996,-3.82744 0.87304,-2.98092 1.85115,-5.92843 2.94719,-8.83535 1.21671,-3.30342 2.45652,-6.59974 3.54971,-9.94685 0.91837,-2.82741 1.76962,-5.679 2.82142,-8.46099 1.17022,-2.97555 2.47633,-5.89339 3.92934,-8.74254 1.78315,-3.54189 3.59653,-7.0691 5.46351,-10.56759 2.49988,-4.5542 5.19229,-8.99779 8.22975,-13.21791 0.63797,-0.89203 1.26591,-1.79132 1.91391,-2.67608 4.05183,-5.53224 8.42677,-10.81992 12.82588,-16.07651 5.25542,-6.20431 10.49422,-12.4237 15.88531,-18.51123 0.98428,-1.13627 2.68689,-3.06226 3.63437,-4.29775 0.46418,-0.60529 1.21428,-1.11303 1.32144,-1.86825 0.29294,-2.06447 1.03461,-4.5505 -0.16905,-6.25316 -2.2901,-3.23953 -4.44891,-2.11437 -6.60242,-1.26664 -1.35079,0.72462 -2.66805,1.5111 -3.94763,2.35535 -1.67551,1.13355 -3.28301,2.35697 -4.83279,3.65781 -2.31766,1.91108 -4.54294,3.93572 -6.59188,6.13545 -2.98141,3.24992 -5.80492,6.63694 -8.47591,10.14734 -3.71656,4.80126 -7.38096,9.64263 -11.11893,14.42733 -6.2407,7.88597 -12.71078,15.59454 -18.66066,23.70658 -1.21418,1.69855 -2.44486,3.38542 -3.64253,5.09565 -6.08849,8.69415 -11.74774,17.67705 -17.27559,26.73497 -1.98371,3.24444 -2.911,4.7809 -4.84819,7.88199 -0.54843,0.87793 -1.09783,1.75532 -1.65767,2.62602 -0.33763,0.5251 -1.60557,1.30873 -1.03459,1.56113 0.79565,0.35171 1.62236,-0.62849 2.43354,-0.94274 1.81873,2.16329 3.63747,4.32659 5.4562,6.48988 -0.15825,0.2371 -0.11731,0.18711 0.1658,-0.41745 0.58389,-1.24684 1.21055,-2.47368 1.78518,-3.72499 1.22479,-2.65667 2.40769,-5.33236 3.63433,-7.9882 1.79678,-3.87645 3.60794,-7.74675 5.50376,-11.576 2.24828,-4.50493 4.54107,-8.98769 6.92288,-13.42375 2.86201,-5.33464 5.74927,-10.6601 8.93674,-15.80972 3.25398,-5.22043 6.55862,-10.41116 10.10388,-15.44051 4.49957,-6.41934 9.00476,-12.83728 13.75429,-19.07574 5.95989,-7.91058 11.96145,-15.79317 17.65886,-23.89677 2.5918,-3.66808 5.19973,-7.32312 7.82537,-10.96703 0.95037,-1.31894 2.5211,-3.44015 3.38421,-4.87774 0.42372,-0.70576 0.77369,-1.45325 1.16053,-2.17987 -1.56287,-2.46291 -2.43847,-5.53257 -4.68861,-7.38874 -1.20806,-0.99654 -4.60251,2.376 -5.48494,3.219 -2.66323,2.60191 -5.2963,5.23482 -7.89565,7.90057 -3.76132,3.91658 -7.45645,7.90123 -10.94834,12.06166 -4.20351,5.05981 -8.34407,10.17157 -12.52968,15.2462 -4.8995,6.01234 -9.77959,12.04019 -14.55522,18.1518 -7.06787,8.88336 -14.14308,17.76822 -20.70036,27.04057 -1.2986,1.83536 -2.60887,3.66252 -3.8958,5.50608 -6.20087,8.88286 -12.15743,17.93395 -18.33835,26.83061 -2.61033,3.90467 -2.81859,4.15557 -5.18144,7.90097 -3.38763,5.36979 -2.22834,2.54433 6.51011,8.40806 0.0303,0.0204 0.0293,-0.0669 0.044,-0.10033 0.99618,-1.78991 2.02554,-3.56126 3.02439,-5.3497 1.57898,-2.8305 3.09734,-5.69281 4.59773,-8.56566 1.93439,-3.54328 4.07205,-6.96412 6.27395,-10.34709 2.17835,-3.40751 4.34184,-6.82557 6.63938,-10.15485 2.60282,-3.80065 5.21761,-7.59316 7.87391,-11.3567 2.77364,-3.97621 5.50771,-7.9793 8.2046,-12.00802 2.88903,-4.27592 5.74665,-8.57361 8.70204,-12.80421 3.49889,-4.96658 7.02431,-9.91448 10.57501,-14.84417 4.16134,-5.69619 8.54179,-11.22294 13.01639,-16.67618 5.45274,-6.71363 10.903,-13.42996 16.17885,-20.28445 2.20593,-2.80821 4.42351,-5.60691 6.6382,-8.40819 0.30266,-0.38282 2.76771,-3.45773 3.06643,-4.03304 0.51035,-0.9829 0.80419,-2.06386 1.20628,-3.09579 -1.4547,-1.88591 -2.46719,-4.21739 -4.3641,-5.65773 -0.72525,-0.55068 -1.82104,0.12024 -2.71742,0.28069 -0.30333,0.0543 -0.57238,0.22925 -0.85222,0.35827 -0.81576,0.37612 -1.5795,0.85587 -2.36239,1.29286 -3.0804,1.79273 -6.13259,3.63511 -9.12499,5.57181 -1.83951,1.22279 -2.57085,1.68055 -4.37975,3.00252 -3.28569,2.40124 -6.38327,5.04423 -9.41048,7.76068 -2.00249,1.82117 -2.96099,2.66697 -4.91545,4.54914 -3.16759,3.05043 -6.18177,6.25628 -9.12043,9.52646 -4.98258,5.65795 -9.78089,11.47206 -14.56973,17.29425 -2.03133,2.49563 -3.19683,3.90612 -5.19053,6.44223 -3.54372,4.50783 -6.93147,9.13535 -10.24325,13.81554 -6.15879,8.74231 -12.22127,17.55268 -18.23894,26.39259 -1.12162,1.67656 -2.2532,3.34649 -3.36486,5.02967 -4.88689,7.39926 -9.58479,14.92261 -14.53559,22.27995 -1.31362,1.92542 -1.96663,2.88547 -3.21632,4.70795 -0.23476,0.34236 -1.10615,0.91551 -0.70598,1.02591 2.55515,0.70492 5.68059,-0.50113 7.89399,0.95714 1.7275,1.13814 -0.4189,6.15122 0.46223,4.02256 0.83156,-1.88245 1.65671,-3.76816 2.53212,-5.63077 0.41756,-0.8657 0.7033,-1.48053 1.15677,-2.33002 1.02854,-1.92676 2.27578,-3.72228 3.51979,-5.51368 2.53052,-3.63241 5.03032,-7.2851 7.50338,-10.95682 2.32384,-3.26494 4.84701,-6.37817 7.2034,-9.61927 2.37512,-3.33515 4.68271,-6.72037 7.18782,-9.96096 3.00281,-3.85503 6.11885,-7.62051 9.35176,-11.28524 3.03595,-3.43515 6.10656,-6.84058 9.02652,-10.37617 2.7467,-3.2002 5.51786,-6.37933 8.27025,-9.57463 2.69645,-3.06612 5.45893,-6.07186 8.28352,-9.02056 2.19923,-2.37038 4.3567,-4.77891 6.52879,-7.17411 2.34887,-2.56537 4.73253,-5.09903 7.20134,-7.54993 2.6119,-2.6176 5.26527,-5.19848 7.73808,-7.95 2.38734,-2.74672 4.66555,-5.58372 6.96623,-8.40294 2.10744,-2.62984 4.1586,-5.30698 5.93697,-8.17479 1.8268,-2.91876 3.61471,-5.89275 4.79433,-9.14328 0.16449,-0.51529 0.34913,-1.02458 0.49347,-1.54588 0.47665,-1.7215 0.80296,-3.73398 0.57682,-5.52294 -0.0728,-0.57632 -0.22001,-1.14079 -0.33002,-1.71118 -0.3966,-0.73029 -0.64665,-1.56191 -1.1898,-2.19088 -1.55366,-1.79914 -3.92002,-2.36735 -6.16314,-1.92547 -0.41854,0.0824 -0.8207,0.23311 -1.23104,0.34967 -0.41066,0.18865 -0.83429,0.3513 -1.23198,0.56595 -1.84214,0.99427 -3.26056,2.59712 -4.77445,4.0016 -2.62134,2.60155 -5.13236,5.30651 -7.54698,8.10156 -2.87832,3.21719 -5.84172,6.35618 -8.90755,9.39598 -3.73081,3.74325 -7.47744,7.47342 -11.04963,11.3701 -4.56358,4.96322 -9.06637,9.98148 -13.52557,15.03872 -4.42753,4.99517 -8.93826,9.91597 -13.30836,14.96181 -3.63005,4.17256 -7.24704,8.35777 -10.98767,12.43224 -3.80672,4.15653 -7.62028,8.30837 -11.24067,12.6302 -3.702,4.3637 -7.38342,8.74498 -10.97598,13.19963 -1.33104,1.64887 -2.40854,2.9656 -3.70482,4.6443 -2.33835,3.02817 -4.54783,6.15362 -6.73225,9.29364 -2.98539,4.35957 -5.85448,8.79748 -8.88805,13.12363 -1.81246,2.46764 -0.76284,1.05853 -2.55309,3.41981 -0.95777,1.26327 -1.99623,2.53275 -2.76261,3.92856 -0.23376,0.42575 -0.41614,0.87776 -0.62421,1.31664 -2.21126,6.71643 7.2872,9.84361 9.49846,3.12719 z" /></g></g></svg>
